<svg preserveAspectRatio="none" width="100%" height="100%" overflow="visible" style="display: block;" viewBox="0 0 57 57" fill="none" xmlns="http://www.w3.org/2000/svg">
<g id="Shadow" filter="url(#filter0_d_0_8)">
<path id="Icon" d="M39 24L37.125 19.875L33 18L37.125 16.125L39 12L40.875 16.125L45 18L40.875 19.875L39 24V24M39 45L37.125 40.875L33 39L37.125 37.125L39 33L40.875 37.125L45 39L40.875 40.875L39 45V45M24 40.5L20.25 32.25L12 28.5L20.25 24.75L24 16.5L27.75 24.75L36 28.5L27.75 32.25L24 40.5V40.5M24 33.225L25.5 30L28.725 28.5L25.5 27L24 23.775L22.5 27L19.275 28.5L22.5 30L24 33.225V33.225M24 28.5V28.5V28.5V28.5V28.5V28.5V28.5V28.5V28.5V28.5" fill="var(--fill-0, #C5C0FF)"/>
</g>
<defs>
<filter id="filter0_d_0_8" x="0" y="0" width="57" height="57" filterUnits="userSpaceOnUse" color-interpolation-filters="sRGB">
<feFlood flood-opacity="0" result="BackgroundImageFix"/>
<feColorMatrix in="SourceAlpha" type="matrix" values="0 0 0 0 0 0 0 0 0 0 0 0 0 0 0 0 0 0 127 0" result="hardAlpha"/>
<feOffset/>
<feGaussianBlur stdDeviation="6"/>
<feComposite in2="hardAlpha" operator="out"/>
<feColorMatrix type="matrix" values="0 0 0 0 0.772549 0 0 0 0 0.752941 0 0 0 0 1 0 0 0 0.4 0"/>
<feBlend mode="normal" in2="BackgroundImageFix" result="effect1_dropShadow_0_8"/>
<feBlend mode="normal" in="SourceGraphic" in2="effect1_dropShadow_0_8" result="shape"/>
</filter>
</defs>
</svg>
