<svg preserveAspectRatio="none" width="100%" height="100%" overflow="visible" style="display: block;" viewBox="0 0 52.5 51" fill="none" xmlns="http://www.w3.org/2000/svg">
<g id="Shadow" filter="url(#filter0_d_0_4)">
<path id="Icon" d="M15 36V36V36V36V36V36V36V36V15V15V15V15V15V15V15V15C15 15 15 15.5562 15 16.6687C15 17.7812 15 19.225 15 21V30C15 31.775 15 33.2187 15 34.3312C15 35.4437 15 36 15 36V36M15 39C14.175 39 13.4688 38.7062 12.8813 38.1187C12.2938 37.5312 12 36.825 12 36V15C12 14.175 12.2938 13.4688 12.8813 12.8813C13.4688 12.2938 14.175 12 15 12H36C36.825 12 37.5312 12.2938 38.1187 12.8813C38.7062 13.4688 39 14.175 39 15V18.75H36V15V15V15H15V15V15V36V36V36H36V36V36V32.25H39V36C39 36.825 38.7062 37.5312 38.1187 38.1187C37.5312 38.7062 36.825 39 36 39H15V39M27 33C26.175 33 25.4688 32.7062 24.8813 32.1187C24.2938 31.5312 24 30.825 24 30V21C24 20.175 24.2938 19.4687 24.8813 18.8812C25.4688 18.2937 26.175 18 27 18H37.5C38.325 18 39.0312 18.2937 39.6187 18.8812C40.2062 19.4687 40.5 20.175 40.5 21V30C40.5 30.825 40.2062 31.5312 39.6187 32.1187C39.0312 32.7062 38.325 33 37.5 33H27V33M37.5 30V30V30V21V21V21H27V21V21V30V30V30H37.5V30M31.5 27.75C32.125 27.75 32.6562 27.5312 33.0938 27.0938C33.5312 26.6562 33.75 26.125 33.75 25.5C33.75 24.875 33.5312 24.3438 33.0938 23.9062C32.6562 23.4688 32.125 23.25 31.5 23.25C30.875 23.25 30.3438 23.4688 29.9062 23.9062C29.4688 24.3438 29.25 24.875 29.25 25.5C29.25 26.125 29.4688 26.6562 29.9062 27.0938C30.3438 27.5312 30.875 27.75 31.5 27.75V27.75" fill="var(--fill-0, #C5C0FF)"/>
</g>
<defs>
<filter id="filter0_d_0_4" x="0" y="0" width="52.5" height="51" filterUnits="userSpaceOnUse" color-interpolation-filters="sRGB">
<feFlood flood-opacity="0" result="BackgroundImageFix"/>
<feColorMatrix in="SourceAlpha" type="matrix" values="0 0 0 0 0 0 0 0 0 0 0 0 0 0 0 0 0 0 127 0" result="hardAlpha"/>
<feOffset/>
<feGaussianBlur stdDeviation="6"/>
<feComposite in2="hardAlpha" operator="out"/>
<feColorMatrix type="matrix" values="0 0 0 0 0.772549 0 0 0 0 0.752941 0 0 0 0 1 0 0 0 0.4 0"/>
<feBlend mode="normal" in2="BackgroundImageFix" result="effect1_dropShadow_0_4"/>
<feBlend mode="normal" in="SourceGraphic" in2="effect1_dropShadow_0_4" result="shape"/>
</filter>
</defs>
</svg>
