<svg preserveAspectRatio="none" width="100%" height="100%" overflow="visible" style="display: block;" viewBox="0 0 48 54" fill="none" xmlns="http://www.w3.org/2000/svg">
<g id="Shadow" filter="url(#filter0_d_0_10)">
<path id="Icon" d="M24 42C20.525 41.125 17.6562 39.1312 15.3937 36.0187C13.1312 32.9062 12 29.45 12 25.65V16.5L24 12L36 16.5V25.65C36 27.775 35.6375 29.8188 34.9125 31.7812C34.1875 33.7437 33.15 35.475 31.8 36.975L27 32.175C26.55 32.45 26.0687 32.6563 25.5562 32.7938C25.0437 32.9313 24.525 33 24 33C22.35 33 20.9375 32.4125 19.7625 31.2375C18.5875 30.0625 18 28.65 18 27C18 25.35 18.5875 23.9375 19.7625 22.7625C20.9375 21.5875 22.35 21 24 21C25.65 21 27.0625 21.5875 28.2375 22.7625C29.4125 23.9375 30 25.35 30 27C30 27.55 29.9313 28.0813 29.7938 28.5938C29.6563 29.1062 29.45 29.6 29.175 30.075L31.425 32.325C31.925 31.3 32.3125 30.225 32.5875 29.1C32.8625 27.975 33 26.825 33 25.65V18.5625L24 15.1875L15 18.5625V25.65C15 28.675 15.85 31.425 17.55 33.9C19.25 36.375 21.4 38.025 24 38.85C24.65 38.65 25.2687 38.3937 25.8562 38.0812C26.4437 37.7687 27.025 37.4 27.6 36.975L29.7 39.075C28.875 39.75 27.9813 40.3375 27.0188 40.8375C26.0563 41.3375 25.05 41.725 24 42V42M24 30C24.825 30 25.5312 29.7062 26.1187 29.1187C26.7062 28.5312 27 27.825 27 27C27 26.175 26.7062 25.4688 26.1187 24.8813C25.5312 24.2938 24.825 24 24 24C23.175 24 22.4688 24.2938 21.8813 24.8813C21.2938 25.4688 21 26.175 21 27C21 27.825 21.2938 28.5312 21.8813 29.1187C22.4688 29.7062 23.175 30 24 30V30M24.3 27.1125V27.1125V27.1125V27.1125V27.1125V27.1125V27.1125V27.1125V27.1125V27.1125V27.1125V27.1125V27.1125V27.1125V27.1125V27.1125V27.1125" fill="var(--fill-0, #C5C0FF)"/>
</g>
<defs>
<filter id="filter0_d_0_10" x="0" y="0" width="48" height="54" filterUnits="userSpaceOnUse" color-interpolation-filters="sRGB">
<feFlood flood-opacity="0" result="BackgroundImageFix"/>
<feColorMatrix in="SourceAlpha" type="matrix" values="0 0 0 0 0 0 0 0 0 0 0 0 0 0 0 0 0 0 127 0" result="hardAlpha"/>
<feOffset/>
<feGaussianBlur stdDeviation="6"/>
<feComposite in2="hardAlpha" operator="out"/>
<feColorMatrix type="matrix" values="0 0 0 0 0.772549 0 0 0 0 0.752941 0 0 0 0 1 0 0 0 0.4 0"/>
<feBlend mode="normal" in2="BackgroundImageFix" result="effect1_dropShadow_0_10"/>
<feBlend mode="normal" in="SourceGraphic" in2="effect1_dropShadow_0_10" result="shape"/>
</filter>
</defs>
</svg>
